<svg width="271" height="271" viewBox="0 0 271 271" fill="none" xmlns="http://www.w3.org/2000/svg">
<g clip-path="url(#clip0_0_28)">
<path d="M135.5 270.378C209.991 270.378 270.378 209.991 270.378 135.5C270.378 61.0087 209.991 0.621582 135.5 0.621582C61.0087 0.621582 0.621559 61.0087 0.621559 135.5C0.621559 209.991 61.0087 270.378 135.5 270.378Z" stroke="white" stroke-width="2" stroke-dasharray="3 10"/>
<path d="M135.5 243.184C194.972 243.184 243.184 194.972 243.184 135.5C243.184 76.0278 194.972 27.816 135.5 27.816C76.0278 27.816 27.8161 76.0278 27.8161 135.5C27.8161 194.972 76.0278 243.184 135.5 243.184Z" stroke="white" stroke-width="2" stroke-dasharray="3 10"/>
<path d="M135.501 215.361C179.607 215.361 215.362 179.606 215.362 135.5C215.362 91.3939 179.607 55.6389 135.501 55.6389C91.3945 55.6389 55.6395 91.3939 55.6395 135.5C55.6395 179.606 91.3945 215.361 135.501 215.361Z" stroke="white" stroke-width="2" stroke-dasharray="3 10"/>
<path d="M135.499 185.966C163.371 185.966 185.965 163.372 185.965 135.5C185.965 107.628 163.371 85.0339 135.499 85.0339C107.628 85.0339 85.0333 107.628 85.0333 135.5C85.0333 163.372 107.628 185.966 135.499 185.966Z" stroke="white" stroke-width="2" stroke-dasharray="3 10"/>
<path d="M149.519 136.367H122.151" stroke="white" stroke-width="2"/>
<path d="M135.126 149.517V122.15" stroke="white" stroke-width="2"/>
</g>
<defs>
<clipPath id="clip0_0_28">
<rect width="271" height="271" fill="white"/>
</clipPath>
</defs>
</svg>
