<svg width="267" height="271" viewBox="0 0 267 271" fill="none" xmlns="http://www.w3.org/2000/svg">
<g clip-path="url(#clip0_1_277)">
<path d="M133.134 270.378C206.295 270.378 265.604 209.991 265.604 135.5C265.604 61.0087 206.295 0.621582 133.134 0.621582C59.9728 0.621582 0.664062 61.0087 0.664062 135.5C0.664062 209.991 59.9728 270.378 133.134 270.378Z" stroke="white" stroke-width="2" stroke-dasharray="3 10"/>
<path d="M133.134 243.184C191.544 243.184 238.895 194.972 238.895 135.5C238.895 76.0279 191.544 27.8162 133.134 27.8162C74.7238 27.8162 27.3729 76.0279 27.3729 135.5C27.3729 194.972 74.7238 243.184 133.134 243.184Z" stroke="white" stroke-width="2" stroke-dasharray="3 10"/>
<path d="M133.134 215.361C176.453 215.361 211.569 179.606 211.569 135.5C211.569 91.3939 176.453 55.6389 133.134 55.6389C89.8161 55.6389 54.6995 91.3939 54.6995 135.5C54.6995 179.606 89.8161 215.361 133.134 215.361Z" stroke="white" stroke-width="2" stroke-dasharray="3 10"/>
<path d="M133.133 185.966C160.507 185.966 182.698 163.372 182.698 135.5C182.698 107.628 160.507 85.0339 133.133 85.0339C105.759 85.0339 83.5685 107.628 83.5685 135.5C83.5685 163.372 105.759 185.966 133.133 185.966Z" stroke="white" stroke-width="2" stroke-dasharray="3 10"/>
<path d="M146.903 136.367H120.024" stroke="white" stroke-width="2"/>
<path d="M132.766 149.517V122.15" stroke="white" stroke-width="2"/>
</g>
<defs>
<clipPath id="clip0_1_277">
<rect width="266.161" height="271" fill="white" transform="translate(0.0535889)"/>
</clipPath>
</defs>
</svg>
