<svg width="24" height="24" viewBox="0 0 24 24" fill="none" xmlns="http://www.w3.org/2000/svg">
<path d="M16.41 8.98L17.25 8.177V8H14.348L12.279 13.16L9.927 8H6.883V8.177L7.863 9.357C7.91061 9.39966 7.94747 9.45297 7.97058 9.51257C7.99369 9.57217 8.0024 9.63639 7.996 9.7V14.341C8.01 14.4234 8.00444 14.508 7.97978 14.5879C7.95511 14.6678 7.91203 14.7408 7.854 14.801L6.75 16.141V16.316H9.877V16.14L8.774 14.802C8.71541 14.7419 8.67128 14.6692 8.64495 14.5895C8.61861 14.5098 8.61076 14.4252 8.622 14.342V10.328L11.367 16.317H11.687L14.044 10.328V15.101C14.044 15.228 14.044 15.252 13.96 15.336L13.112 16.159V16.335H17.229V16.159L16.411 15.355C16.3754 15.3281 16.3479 15.292 16.3313 15.2506C16.3147 15.2092 16.3098 15.164 16.317 15.12V9.215C16.3098 9.17098 16.3147 9.12583 16.3313 9.08442C16.3479 9.04301 16.3744 9.0069 16.41 8.98Z" fill="white"/>
<path fill-rule="evenodd" clip-rule="evenodd" d="M17.2581 2.83303C13.7634 2.44563 10.2367 2.44563 6.74206 2.83303C4.73006 3.05803 3.10506 4.64303 2.86906 6.66503C2.45445 10.2096 2.45445 13.7904 2.86906 17.335C3.10506 19.357 4.72906 20.942 6.74206 21.167C10.2367 21.554 13.7634 21.554 17.2581 21.167C19.2701 20.942 20.8951 19.357 21.1311 17.335C21.5456 13.7904 21.5456 10.2096 21.1311 6.66503C20.8951 4.64303 19.2711 3.05803 17.2581 2.83303ZM6.90806 4.32303C10.2924 3.94791 13.7078 3.94791 17.0921 4.32303C18.4221 4.47303 19.4871 5.52203 19.6421 6.84003C20.043 10.2684 20.043 13.7317 19.6421 17.16C19.5619 17.8051 19.2666 18.4043 18.8039 18.8608C18.3412 19.3173 17.7381 19.6045 17.0921 19.676C13.7078 20.0512 10.2924 20.0512 6.90806 19.676C6.262 19.6045 5.65891 19.3173 5.19622 18.8608C4.73352 18.4043 4.43824 17.8051 4.35806 17.16C3.95711 13.7317 3.95711 10.2684 4.35806 6.84003C4.43824 6.19499 4.73352 5.59581 5.19622 5.13929C5.65891 4.68276 6.262 4.39454 6.90806 4.32303Z" fill="white"/>
</svg>
