<svg width="1385" height="857" viewBox="0 0 1385 857" fill="none" xmlns="http://www.w3.org/2000/svg">
<rect width="1409.06" height="857" fill="#212121"/>
<path d="M0 231.25H209.03" stroke="white" stroke-width="2" stroke-dasharray="8 8"/>
<path d="M1200.03 214H1409.06" stroke="white" stroke-width="2" stroke-dasharray="8 8"/>
<path d="M293.029 0V176" stroke="white" stroke-width="2" stroke-dasharray="8 8"/>
<path d="M315.029 681V857" stroke="white" stroke-width="2" stroke-dasharray="8 8"/>
<path d="M493.029 0V176" stroke="white" stroke-width="2" stroke-dasharray="8 8"/>
<path d="M515.029 681V857" stroke="white" stroke-width="2" stroke-dasharray="8 8"/>
<path d="M694.029 0V176" stroke="white" stroke-width="2" stroke-dasharray="8 8"/>
<path d="M716.029 681V857" stroke="white" stroke-width="2" stroke-dasharray="8 8"/>
<path d="M894.029 0V176" stroke="white" stroke-width="2" stroke-dasharray="8 8"/>
<path d="M916.029 681V857" stroke="white" stroke-width="2" stroke-dasharray="8 8"/>
<path d="M1094.03 0V176" stroke="white" stroke-width="2" stroke-dasharray="8 8"/>
<path d="M1116.03 681V857" stroke="white" stroke-width="2" stroke-dasharray="8 8"/>
<path d="M0.0292969 632H209.029" stroke="white" stroke-width="2" stroke-dasharray="8 8"/>
<path d="M1200.06 614.75H1409.06" stroke="white" stroke-width="2" stroke-dasharray="8 8"/>
<path d="M0.0292969 432H209.029" stroke="white" stroke-width="2" stroke-dasharray="8 8"/>
<path d="M1200.06 414.75H1409.06" stroke="white" stroke-width="2" stroke-dasharray="8 8"/>
<path d="M1199.53 386.094V442.906M1227.94 414.5H1171.12" stroke="white" stroke-width="2" stroke-linecap="square" stroke-linejoin="round"/>
<path d="M60.5293 404.094V460.906M88.9355 432.5H32.123" stroke="white" stroke-width="2" stroke-linecap="square" stroke-linejoin="round"/>
<path d="M1199.53 185.094V241.906M1227.94 213.5H1171.12" stroke="white" stroke-width="2" stroke-linecap="square" stroke-linejoin="round"/>
<path d="M60.5293 203.094V259.906M88.9355 231.5H32.123" stroke="white" stroke-width="2" stroke-linecap="square" stroke-linejoin="round"/>
<path d="M1199.53 587.094V643.906M1227.94 615.5H1171.12" stroke="white" stroke-width="2" stroke-linecap="square" stroke-linejoin="round"/>
<path d="M60.5293 605.094V661.906M88.9355 633.5H32.123" stroke="white" stroke-width="2" stroke-linecap="square" stroke-linejoin="round"/>
<path d="M1349.53 386.094V442.906M1377.94 414.5H1321.12" stroke="white" stroke-width="2" stroke-linecap="square" stroke-linejoin="round"/>
<path d="M210.529 404.094V460.906M238.936 432.5H182.123" stroke="white" stroke-width="2" stroke-linecap="square" stroke-linejoin="round"/>
<path d="M1349.53 185.094V241.906M1377.94 213.5H1321.12" stroke="white" stroke-width="2" stroke-linecap="square" stroke-linejoin="round"/>
<path d="M210.529 203.094V259.906M238.936 231.5H182.123" stroke="white" stroke-width="2" stroke-linecap="square" stroke-linejoin="round"/>
<path d="M1349.53 587.094V643.906M1377.94 615.5H1321.12" stroke="white" stroke-width="2" stroke-linecap="square" stroke-linejoin="round"/>
<path d="M210.529 605.094V661.906M238.936 633.5H182.123" stroke="white" stroke-width="2" stroke-linecap="square" stroke-linejoin="round"/>
</svg>
